<svg width="16" height="16" viewBox="0 0 16 16" fill="none" xmlns="http://www.w3.org/2000/svg">
<path d="M2 1.75C2 0.784 2.784 0 3.75 0H10.336C10.8 0 11.245 0.184 11.573 0.513L14.487 3.427C14.816 3.755 15 4.2 15 4.664V14.25C15 14.7141 14.8156 15.1592 14.4874 15.4874C14.1592 15.8156 13.7141 16 13.25 16H3.75C3.28587 16 2.84075 15.8156 2.51256 15.4874C2.18437 15.1592 2 14.7141 2 14.25V1.75ZM3.75 1.5C3.6837 1.5 3.62011 1.52634 3.57322 1.57322C3.52634 1.62011 3.5 1.6837 3.5 1.75V14.25C3.5 14.388 3.612 14.5 3.75 14.5H13.25C13.3163 14.5 13.3799 14.4737 13.4268 14.4268C13.4737 14.3799 13.5 14.3163 13.5 14.25V6H10.75C10.2859 6 9.84075 5.81563 9.51256 5.48744C9.18437 5.15925 9 4.71413 9 4.25V1.5H3.75ZM10.5 1.562V4.25C10.5 4.388 10.612 4.5 10.75 4.5H13.438L13.427 4.487L10.513 1.573L10.5 1.562V1.562Z" fill="#758390"/>
</svg>
