<svg width="16" height="16" viewBox="0 0 16 16" fill="none" xmlns="http://www.w3.org/2000/svg">
<g clip-path="url(#clip0_1_21)">
<path d="M1.75 1C1.28587 1 0.840752 1.18437 0.512563 1.51256C0.184374 1.84075 0 2.28587 0 2.75L0 13.25C0 14.216 0.784 15 1.75 15H14.25C14.7141 15 15.1592 14.8156 15.4874 14.4874C15.8156 14.1592 16 13.7141 16 13.25V4.75C16 4.28587 15.8156 3.84075 15.4874 3.51256C15.1592 3.18437 14.7141 3 14.25 3H7.5C7.46119 3 7.42291 2.99096 7.3882 2.97361C7.35348 2.95625 7.32329 2.93105 7.3 2.9L6.4 1.7C6.07 1.26 5.55 1 5 1H1.75Z" fill="#758390"/>
</g>
<defs>
<clipPath id="clip0_1_21">
<rect width="16" height="16" fill="white"/>
</clipPath>
</defs>
</svg>
